<svg width="800" height="600" xmlns="http://www.w3.org/2000/svg">
 <g>
  <title>Layer 1</title>
  <path stroke="#000" d="m186.98734,325.47933c-2.18872,-1.65048 -8.54676,-6.7348 -19.69844,-16.50476c-34.38658,-30.12602 -53.03857,-42.47211 -65.66146,-51.16475c-4.57131,-3.14799 -6.79248,-6.4473 -8.75486,-8.25238c-5.00312,-4.60207 -7.12755,-11.21828 -8.75486,-13.20381c-3.63876,-4.43976 -3.37172,-8.34068 -4.37743,-11.55333c-1.12445,-3.59185 -3.37172,-6.6902 -4.37743,-9.90286c-2.24886,-7.18371 -5.46645,-11.43087 -6.56615,-19.80571c-0.43135,-3.28488 -2.18872,-9.90286 -2.18872,-16.50476c0,-3.30095 -0.33437,-8.32058 2.18872,-14.85428c1.93513,-5.01111 2.51208,-9.80945 6.56615,-18.15523c4.76129,-9.80163 12.19005,-21.6757 15.32101,-28.05809c1.69801,-3.46134 7.01877,-9.59365 10.94358,-13.20381c5.00312,-4.60205 10.94358,-11.55333 13.13229,-13.20381c4.37743,-3.30095 6.56615,-4.95143 8.75486,-6.6019c4.37743,-3.30095 10.09836,-3.79114 15.32101,-8.25238c3.23895,-2.76674 6.97325,-4.44399 10.94358,-6.6019c5.02209,-2.72957 12.76476,-3.92607 21.88715,-6.6019c14.85017,-4.35595 22.17825,-4.2409 30.64201,-6.6019c9.18024,-2.56086 17.3079,-4.11997 26.26458,-4.95143c17.37853,-1.61329 21.50139,-0.80256 26.26458,-1.65048c10.65081,-1.89602 17.50972,0 26.26458,0c8.75486,0 15.32101,-1.65048 26.26458,-1.65048c6.56615,0 17.50972,0 26.26458,0c10.94358,0 17.58427,-1.13843 32.83073,0c11.10602,0.82928 21.77054,4.12411 37.20816,4.95143c8.73282,0.46801 26.39109,2.77219 52.52917,6.6019c19.80851,2.90231 34.01211,10.67648 50.34045,13.20381c2.14402,0.33186 10.58916,4.06928 21.88715,6.6019c10.69763,2.39806 17.70108,4.61131 28.4533,8.25238c4.46461,1.51187 13.64447,4.11454 24.07587,8.25238c6.98415,2.77042 23.03001,9.62523 37.20816,14.85428c12.4351,4.58618 24.37056,9.59166 30.64201,13.20381c5.50044,3.16806 17.50972,4.95143 21.88715,8.25238c6.56615,4.95143 17.50972,11.55333 21.88715,14.85428c6.56615,4.95143 9.08175,7.38467 10.94358,8.25238c4.16316,1.94025 7.32386,6.11577 10.94358,9.90286c2.86166,2.99396 4.37743,8.25238 6.56615,13.20381c2.18872,4.95143 3.94608,6.61798 4.37743,9.90286c1.0997,8.37484 2.18872,9.90286 2.18872,23.10666c0,3.30095 0,6.6019 0,8.25238c0,1.65048 0,4.95143 0,8.25238c0,3.30095 0,4.95143 0,9.90286c0,6.6019 -3.91749,11.68278 -6.56615,16.50476c-1.87291,3.40965 -3.51606,9.14149 -6.56615,13.20381c-4.44629,5.92178 -10.88339,14.27247 -13.13229,21.45619c-1.00571,3.21265 -7.30482,10.41452 -10.94358,14.85428c-3.25462,3.97106 -8.08192,6.90889 -10.94358,9.90286c-3.61972,3.78708 -7.48289,7.29321 -10.94358,9.90286c-3.46069,2.60965 -5.36345,5.69495 -10.94358,9.90286c-5.58013,4.2079 -8.91549,8.13954 -10.94358,9.90286c-7.17023,6.23429 -11.23827,9.59166 -17.50972,13.20381c-5.50044,3.16806 -12.80994,5.23712 -15.32101,6.6019c-7.94064,4.31583 -9.08809,3.6882 -13.13229,4.95143c-2.85967,0.89324 -4.37743,3.30095 -6.56615,4.95143c-4.37743,3.30095 -6.73273,2.66933 -8.75486,3.30095c-5.7194,1.78648 -6.18041,5.75397 -10.94358,6.6019c-2.13015,0.3792 -6.56615,1.65048 -13.13229,6.6019c0,0 -3.8545,0.68642 -10.94358,3.30095c-6.21755,2.29311 -10.6778,4.11538 -17.50972,4.95143c-2.16046,0.26439 -7.27457,2.50899 -10.94358,4.95143c-5.9161,3.93832 -6.56615,11.55333 -10.94358,18.15523c-2.18872,3.30095 -7.75101,9.41212 -10.94358,14.85428c-3.65084,6.22333 -8.75486,13.20381 -13.13229,18.15523c-4.37743,4.95143 -13.13229,11.55333 -15.32101,14.85428c-4.37743,6.6019 -10.42693,14.46469 -15.32101,18.15523c-4.89408,3.69055 -10.31784,8.60174 -15.32101,13.20381c-1.96242,1.80506 -6.56615,8.25238 -10.94358,11.55333c-4.37743,3.30095 -9.46328,7.46043 -13.13229,9.90286c-5.9161,3.93832 -9.6716,8.94368 -13.13229,11.55333c-6.92135,5.21928 -15.32101,4.95143 -21.88715,6.6019c-6.56615,1.65048 -12.9273,3.47159 -15.32101,4.95143c-6.10286,3.77281 -12.83833,5.6442 -19.69844,4.95143c-7.82168,-0.78988 -11.98162,-6.8484 -13.13229,-8.25238c-2.57299,-3.13937 -9.66011,-5.98349 -17.50972,-13.20381c-5.00316,-4.60207 -7.30482,-8.76403 -10.94358,-13.20381c-3.25462,-3.97106 -3.60889,-6.92502 -8.75486,-13.20381c-5.75339,-7.01992 -11.29666,-15.25703 -15.32101,-23.10666c-4.60204,-8.97638 -10.22701,-11.07217 -15.32101,-21.45619c-3.13096,-6.38239 -7.48289,-10.32635 -10.94358,-18.15523c-1.38427,-3.13156 -3.03159,-8.86637 -8.75486,-14.85428c-3.61972,-3.78707 -9.81912,-9.61198 -10.94358,-13.20381c-1.00571,-3.21265 -4.37743,-8.25238 -6.56615,-11.55333c-2.18872,-3.30095 -6.3858,-8.8909 -8.75486,-13.20381c-1.67518,-3.04968 -1.51579,-6.90889 -4.37743,-9.90286c-1.80985,-1.89352 -3.87457,-6.64605 -4.37743,-8.25238c-1.12445,-3.59185 -4.7563,-4.70838 -6.56615,-6.6019c-2.86164,-2.99396 -2.18872,-4.95143 -2.18872,-4.95143c-2.18872,-1.65048 -3.53983,-3.4266 -4.37743,-4.95143c-1.18453,-2.15645 -4.37743,-3.30095 -4.37743,-4.95143c0,-1.65048 -0.16663,-2.66933 -2.18872,-3.30095c-2.85969,-0.89324 -2.82977,-2.13388 -4.37743,-3.30095c-1.54766,-1.16707 -2.18872,-1.65048 -2.18872,-3.30095c0,0 -1.00418,-1.14451 -2.18872,-3.30095c-0.8376,-1.52483 -0.64105,-2.13388 -2.18872,-3.30095c-1.54766,-1.16707 -2.18872,0 -2.18872,-1.65048c0,-1.65048 0,-3.30095 0,-4.95143c0,0 -2.18872,0 -2.18872,-1.65048c0,0 -0.16663,-1.01886 -2.18872,-1.65048c-2.85969,-0.89324 -2.18872,-3.30095 -2.18872,-3.30095c0,-1.65048 -2.18872,-1.65048 -2.18872,-3.30095c0,-1.65048 -2.18872,-1.65048 -2.18872,-3.30095c0,0 -0.64105,-0.48341 -2.18872,-1.65048c-1.54766,-1.16707 -2.18872,-1.65048 -2.18872,-3.30095c0,-1.65048 -2.18872,-1.65048 -2.18872,-1.65048l0,-1.65048l0,-1.65048l-2.18872,0" id="svg_2" fill="#aad4ff"/>
 </g>

</svg>