<svg width="800" height="600" xmlns="http://www.w3.org/2000/svg">
 <g>
  <title>Layer 1</title>
  <path fill="#aad4ff" stroke="#000" id="svg_2" d="m202.60001,210c-1,-1 -3.90492,-4.08052 -9,-10c-15.71085,-18.25293 -24.23274,-25.73325 -30,-31c-2.08858,-1.90732 -3.10341,-3.90633 -4,-5c-2.28587,-2.78833 -3.2565,-6.797 -4,-8c-1.66251,-2.68999 -1.5405,-5.0535 -2,-7c-0.51375,-2.17625 -1.5405,-4.0535 -2,-6c-1.02748,-4.35251 -2.49756,-6.9258 -3,-12c-0.19708,-1.99026 -1,-6 -1,-10c0,-2 -0.15277,-5.04132 1,-9c0.88414,-3.03616 1.14774,-5.94341 3,-11c2.17538,-5.93867 5.5695,-13.133 7,-17c0.7758,-2.09718 3.2068,-5.81266 5,-8c2.28587,-2.78832 5,-7 6,-8c2,-2 3,-3 4,-4c2,-2 4.61383,-2.297 7,-5c1.47984,-1.67633 3.186,-2.69255 5,-4c2.29454,-1.65381 5.83208,-2.37875 10,-4c6.78488,-2.63921 10.133,-2.5695 14,-4c4.19435,-1.55159 7.90779,-2.49623 12,-3c7.94006,-0.97747 9.82375,-0.48626 12,-1c4.86624,-1.14877 8,0 12,0c4,0 7,-1 12,-1c3,0 8,0 12,0c5,0 8.03406,-0.68976 15,0c5.07422,0.50245 9.94672,2.49874 17,3c3.98993,0.28356 12.0578,1.67963 24,4c9.05029,1.75847 15.53976,6.46873 23,8c0.97958,0.20107 4.83807,2.46552 10,4c4.88763,1.45295 8.08743,2.79393 13,5c2.03983,0.91602 6.23401,2.49294 11,5c3.19098,1.67856 10.52216,5.83179 17,9c5.68146,2.7787 11.13464,5.81145 14,8c2.51309,1.91948 8,3 10,5c3,3 8,7 10,9c3,3 4.14935,4.47427 5,5c1.9021,1.17557 3.34619,3.70546 5,6c1.30746,1.814 2,5 3,8c1,3 1.80292,4.00974 2,6c0.50244,5.0742 1,6 1,14c0,2 0,4 0,5c0,1 0,3 0,5c0,2 0,3 0,6c0,4 -1.78986,7.07843 -3,10c-0.85571,2.06586 -1.60645,5.5387 -3,8c-2.03146,3.58792 -4.9725,8.64749 -6,13c-0.4595,1.9465 -3.33749,6.31001 -5,9c-1.487,2.40601 -3.69254,4.186 -5,6c-1.65381,2.29454 -3.41885,4.41885 -5,6c-1.58115,1.58115 -2.4505,3.45049 -5,6c-2.5495,2.54951 -4.07339,4.93163 -5,6c-3.276,3.77727 -5.13464,5.81145 -8,8c-2.51309,1.91948 -5.85272,3.1731 -7,4c-3.62799,2.6149 -4.15225,2.23463 -6,3c-1.30655,0.5412 -2,2 -3,3c-2,2 -3.07611,1.61731 -4,2c-2.61313,1.0824 -2.82376,3.48625 -5,4c-0.97324,0.22975 -3,1 -6,4c0,0 -1.76108,0.41589 -5,2c-2.84073,1.38936 -4.87857,2.49345 -8,3c-0.98709,0.16019 -3.32367,1.52016 -5,3c-2.703,2.38617 -3,7 -5,11c-1,2 -3.54135,5.70267 -5,9c-1.66803,3.77063 -4,8 -6,11c-2,3 -6,7 -7,9c-2,4 -4.76395,8.76395 -7,11c-2.23605,2.23605 -4.71411,5.21167 -7,8c-0.89661,1.09366 -3,5 -5,7c-2,2 -4.32367,4.52017 -6,6c-2.703,2.38617 -4.41885,5.41885 -6,7c-3.16229,3.16229 -7,3 -10,4c-3,1 -5.90634,2.10339 -7,3c-2.78833,2.28589 -5.86569,3.41974 -9,3c-3.57364,-0.47858 -5.47427,-4.14935 -6,-5c-1.17557,-1.9021 -4.4136,-3.62531 -8,-8c-2.28589,-2.78833 -3.33749,-5.31 -5,-8c-1.487,-2.40601 -1.64886,-4.19577 -4,-8c-2.62866,-4.25327 -5.16132,-9.24402 -7,-14c-2.10262,-5.43866 -4.67261,-6.70847 -7,-13c-1.4305,-3.867 -3.41885,-6.25659 -5,-11c-0.63246,-1.89737 -1.3851,-5.37201 -4,-9c-1.65381,-2.29453 -4.48625,-5.82376 -5,-8c-0.4595,-1.9465 -2,-5 -3,-7c-1,-2 -2.9176,-5.38687 -4,-8c-0.76537,-1.84776 -0.69255,-4.186 -2,-6c-0.8269,-1.14726 -1.77025,-4.02675 -2,-5c-0.51375,-2.17625 -2.1731,-2.85274 -3,-4c-1.30745,-1.814 -1,-3 -1,-3c-1,-1 -1.61731,-2.07613 -2,-3c-0.5412,-1.30656 -2,-2 -2,-3c0,-1 -0.07613,-1.61731 -1,-2c-1.30656,-0.5412 -1.29289,-1.29289 -2,-2c-0.70711,-0.70711 -1,-1 -1,-2c0,0 -0.4588,-0.69344 -1,-2c-0.38269,-0.92387 -0.29289,-1.29289 -1,-2c-0.70711,-0.70711 -1,0 -1,-1c0,-1 0,-2 0,-3c0,0 -1,0 -1,-1c0,0 -0.07613,-0.61731 -1,-1c-1.30656,-0.5412 -1,-2 -1,-2c0,-1 -1,-1 -1,-2c0,-1 -1,-1 -1,-2c0,0 -0.29289,-0.29289 -1,-1c-0.70711,-0.70711 -1,-1 -1,-2c0,-1 -1,-1 -1,-1l0,-1l0,-1l-1,0"/>
 </g>

</svg>